# xmcd CD database file
#
# Track frame offsets:
#	300
#	22991
#	41002
#	58568
#	81130
#	99485
#	114979
#	134336
#	151390
#	169113
#	185808
#	202647
#	220750
#	239453
#	257063
#	274043
#	290860
#	307173
#
# Disc length: 4378 seconds
#
# Revision: 2
# Processed by: cddbd v1.5.2PL0 Copyright (c) Steve Scherf et al.
# Submitted via: CDex 1.51
#
DISCID=04111612
DTITLE=Various Artist - SF-321
DYEAR=1900
DGENRE=Blues
TTITLE0=Adele - Skyfall
TTITLE1=Rihanna - Diamonds
TTITLE2=Cheryl Ft Wretch 32 - Screw You (clean)
TTITLE3=Ellie Goulding - Anything Could Happen
TTITLE4=Carly Rae Jepson - This Kiss
TTITLE5=Matt Cardle - It's Only Love
TTITLE6=Pink - Try
TTITLE7=Lawson - Standing In The Dark
TTITLE8=Wanted The - I Found You
TTITLE9=Kylie Minogue - Flowers
TTITLE10=Calvin Harris Ft Florence - Sweet Nothing
TTITLE11=Example - Close Enemies
TTITLE12=Bruno Mars - Locked Out Of Heaven
TTITLE13=Leona Lewis Ft Childish Gambino - Trouble
TTITLE14=Swedish House Mafia - Don't You Worry Child
TTITLE15=Stooshe - Waterfalls
TTITLE16=Girls Aloud - Something New
TTITLE17=Labrinth Ft Emeli Sande - Beneath Your Beautiful
EXTD=
EXTT0=
EXTT1=
EXTT2=
EXTT3=
EXTT4=
EXTT5=
EXTT6=
EXTT7=
EXTT8=
EXTT9=
EXTT10=
EXTT11=
EXTT12=
EXTT13=
EXTT14=
EXTT15=
EXTT16=
EXTT17=
PLAYORDER=
